<mxfile host="app.diagrams.net" agent="Mozilla/5.0 (Windows NT 10.0; Win64; x64) AppleWebKit/537.36 (KHTML, like Gecko) Chrome/134.0.0.0 Safari/537.36" version="26.1.0">
  <diagram id="r5gvFY3K7-wssAV_AJfJ" name="Лабка7_8">
    <mxGraphModel dx="1518" dy="614" grid="1" gridSize="10" guides="1" tooltips="1" connect="1" arrows="1" fold="1" page="1" pageScale="1" pageWidth="827" pageHeight="1169" math="0" shadow="0">
      <root>
        <mxCell id="0" />
        <mxCell id="1" parent="0" />
        <mxCell id="6uw_re-vHl8ZJ_pmMmy7-1" value="EMPLOYEES" style="shape=table;startSize=25;container=1;collapsible=0;childLayout=tableLayout;fixedRows=1;rowLines=1;fontStyle=1;align=center;resizeLast=1;" parent="1" vertex="1">
          <mxGeometry x="24" y="210" width="144" height="135" as="geometry" />
        </mxCell>
        <mxCell id="6uw_re-vHl8ZJ_pmMmy7-2" style="shape=tableRow;horizontal=0;startSize=0;swimlaneHead=0;swimlaneBody=0;fillColor=none;collapsible=0;dropTarget=0;points=[[0,0.5],[1,0.5]];portConstraint=eastwest;top=0;left=0;right=0;bottom=0;" parent="6uw_re-vHl8ZJ_pmMmy7-1" vertex="1">
          <mxGeometry y="25" width="144" height="22" as="geometry" />
        </mxCell>
        <mxCell id="6uw_re-vHl8ZJ_pmMmy7-3" value="INT" style="shape=partialRectangle;connectable=0;fillColor=none;top=0;left=0;bottom=0;right=0;align=left;spacingLeft=2;overflow=hidden;fontSize=11;" parent="6uw_re-vHl8ZJ_pmMmy7-2" vertex="1">
          <mxGeometry width="42" height="22" as="geometry">
            <mxRectangle width="42" height="22" as="alternateBounds" />
          </mxGeometry>
        </mxCell>
        <mxCell id="6uw_re-vHl8ZJ_pmMmy7-4" value="Employee_ID" style="shape=partialRectangle;connectable=0;fillColor=none;top=0;left=0;bottom=0;right=0;align=left;spacingLeft=2;overflow=hidden;fontSize=11;" parent="6uw_re-vHl8ZJ_pmMmy7-2" vertex="1">
          <mxGeometry x="42" width="80" height="22" as="geometry">
            <mxRectangle width="80" height="22" as="alternateBounds" />
          </mxGeometry>
        </mxCell>
        <mxCell id="6uw_re-vHl8ZJ_pmMmy7-5" value="PK" style="shape=partialRectangle;connectable=0;fillColor=none;top=0;left=0;bottom=0;right=0;align=left;spacingLeft=2;overflow=hidden;fontSize=11;" parent="6uw_re-vHl8ZJ_pmMmy7-2" vertex="1">
          <mxGeometry x="122" width="22" height="22" as="geometry">
            <mxRectangle width="22" height="22" as="alternateBounds" />
          </mxGeometry>
        </mxCell>
        <mxCell id="6uw_re-vHl8ZJ_pmMmy7-6" style="shape=tableRow;horizontal=0;startSize=0;swimlaneHead=0;swimlaneBody=0;fillColor=none;collapsible=0;dropTarget=0;points=[[0,0.5],[1,0.5]];portConstraint=eastwest;top=0;left=0;right=0;bottom=0;" parent="6uw_re-vHl8ZJ_pmMmy7-1" vertex="1">
          <mxGeometry y="47" width="144" height="22" as="geometry" />
        </mxCell>
        <mxCell id="6uw_re-vHl8ZJ_pmMmy7-7" value="VARCHAR" style="shape=partialRectangle;connectable=0;fillColor=none;top=0;left=0;bottom=0;right=0;align=left;spacingLeft=2;overflow=hidden;fontSize=11;" parent="6uw_re-vHl8ZJ_pmMmy7-6" vertex="1">
          <mxGeometry width="42" height="22" as="geometry">
            <mxRectangle width="42" height="22" as="alternateBounds" />
          </mxGeometry>
        </mxCell>
        <mxCell id="6uw_re-vHl8ZJ_pmMmy7-8" value="Name" style="shape=partialRectangle;connectable=0;fillColor=none;top=0;left=0;bottom=0;right=0;align=left;spacingLeft=2;overflow=hidden;fontSize=11;" parent="6uw_re-vHl8ZJ_pmMmy7-6" vertex="1">
          <mxGeometry x="42" width="80" height="22" as="geometry">
            <mxRectangle width="80" height="22" as="alternateBounds" />
          </mxGeometry>
        </mxCell>
        <mxCell id="6uw_re-vHl8ZJ_pmMmy7-9" value="" style="shape=partialRectangle;connectable=0;fillColor=none;top=0;left=0;bottom=0;right=0;align=left;spacingLeft=2;overflow=hidden;fontSize=11;" parent="6uw_re-vHl8ZJ_pmMmy7-6" vertex="1">
          <mxGeometry x="122" width="22" height="22" as="geometry">
            <mxRectangle width="22" height="22" as="alternateBounds" />
          </mxGeometry>
        </mxCell>
        <mxCell id="6uw_re-vHl8ZJ_pmMmy7-10" style="shape=tableRow;horizontal=0;startSize=0;swimlaneHead=0;swimlaneBody=0;fillColor=none;collapsible=0;dropTarget=0;points=[[0,0.5],[1,0.5]];portConstraint=eastwest;top=0;left=0;right=0;bottom=0;" parent="6uw_re-vHl8ZJ_pmMmy7-1" vertex="1">
          <mxGeometry y="69" width="144" height="22" as="geometry" />
        </mxCell>
        <mxCell id="6uw_re-vHl8ZJ_pmMmy7-11" value="VARCHAR" style="shape=partialRectangle;connectable=0;fillColor=none;top=0;left=0;bottom=0;right=0;align=left;spacingLeft=2;overflow=hidden;fontSize=11;" parent="6uw_re-vHl8ZJ_pmMmy7-10" vertex="1">
          <mxGeometry width="42" height="22" as="geometry">
            <mxRectangle width="42" height="22" as="alternateBounds" />
          </mxGeometry>
        </mxCell>
        <mxCell id="6uw_re-vHl8ZJ_pmMmy7-12" value="Surname" style="shape=partialRectangle;connectable=0;fillColor=none;top=0;left=0;bottom=0;right=0;align=left;spacingLeft=2;overflow=hidden;fontSize=11;" parent="6uw_re-vHl8ZJ_pmMmy7-10" vertex="1">
          <mxGeometry x="42" width="80" height="22" as="geometry">
            <mxRectangle width="80" height="22" as="alternateBounds" />
          </mxGeometry>
        </mxCell>
        <mxCell id="6uw_re-vHl8ZJ_pmMmy7-13" value="" style="shape=partialRectangle;connectable=0;fillColor=none;top=0;left=0;bottom=0;right=0;align=left;spacingLeft=2;overflow=hidden;fontSize=11;" parent="6uw_re-vHl8ZJ_pmMmy7-10" vertex="1">
          <mxGeometry x="122" width="22" height="22" as="geometry">
            <mxRectangle width="22" height="22" as="alternateBounds" />
          </mxGeometry>
        </mxCell>
        <mxCell id="6uw_re-vHl8ZJ_pmMmy7-14" style="shape=tableRow;horizontal=0;startSize=0;swimlaneHead=0;swimlaneBody=0;fillColor=none;collapsible=0;dropTarget=0;points=[[0,0.5],[1,0.5]];portConstraint=eastwest;top=0;left=0;right=0;bottom=0;" parent="6uw_re-vHl8ZJ_pmMmy7-1" vertex="1">
          <mxGeometry y="91" width="144" height="22" as="geometry" />
        </mxCell>
        <mxCell id="6uw_re-vHl8ZJ_pmMmy7-15" value="DATE" style="shape=partialRectangle;connectable=0;fillColor=none;top=0;left=0;bottom=0;right=0;align=left;spacingLeft=2;overflow=hidden;fontSize=11;" parent="6uw_re-vHl8ZJ_pmMmy7-14" vertex="1">
          <mxGeometry width="42" height="22" as="geometry">
            <mxRectangle width="42" height="22" as="alternateBounds" />
          </mxGeometry>
        </mxCell>
        <mxCell id="6uw_re-vHl8ZJ_pmMmy7-16" value="Birth_Date" style="shape=partialRectangle;connectable=0;fillColor=none;top=0;left=0;bottom=0;right=0;align=left;spacingLeft=2;overflow=hidden;fontSize=11;" parent="6uw_re-vHl8ZJ_pmMmy7-14" vertex="1">
          <mxGeometry x="42" width="80" height="22" as="geometry">
            <mxRectangle width="80" height="22" as="alternateBounds" />
          </mxGeometry>
        </mxCell>
        <mxCell id="6uw_re-vHl8ZJ_pmMmy7-17" value="" style="shape=partialRectangle;connectable=0;fillColor=none;top=0;left=0;bottom=0;right=0;align=left;spacingLeft=2;overflow=hidden;fontSize=11;" parent="6uw_re-vHl8ZJ_pmMmy7-14" vertex="1">
          <mxGeometry x="122" width="22" height="22" as="geometry">
            <mxRectangle width="22" height="22" as="alternateBounds" />
          </mxGeometry>
        </mxCell>
        <mxCell id="6uw_re-vHl8ZJ_pmMmy7-18" style="shape=tableRow;horizontal=0;startSize=0;swimlaneHead=0;swimlaneBody=0;fillColor=none;collapsible=0;dropTarget=0;points=[[0,0.5],[1,0.5]];portConstraint=eastwest;top=0;left=0;right=0;bottom=0;" parent="6uw_re-vHl8ZJ_pmMmy7-1" vertex="1">
          <mxGeometry y="113" width="144" height="22" as="geometry" />
        </mxCell>
        <mxCell id="6uw_re-vHl8ZJ_pmMmy7-19" value="INT" style="shape=partialRectangle;connectable=0;fillColor=none;top=0;left=0;bottom=0;right=0;align=left;spacingLeft=2;overflow=hidden;fontSize=11;" parent="6uw_re-vHl8ZJ_pmMmy7-18" vertex="1">
          <mxGeometry width="42" height="22" as="geometry">
            <mxRectangle width="42" height="22" as="alternateBounds" />
          </mxGeometry>
        </mxCell>
        <mxCell id="6uw_re-vHl8ZJ_pmMmy7-20" value="Position_ID" style="shape=partialRectangle;connectable=0;fillColor=none;top=0;left=0;bottom=0;right=0;align=left;spacingLeft=2;overflow=hidden;fontSize=11;" parent="6uw_re-vHl8ZJ_pmMmy7-18" vertex="1">
          <mxGeometry x="42" width="80" height="22" as="geometry">
            <mxRectangle width="80" height="22" as="alternateBounds" />
          </mxGeometry>
        </mxCell>
        <mxCell id="6uw_re-vHl8ZJ_pmMmy7-21" value="FK" style="shape=partialRectangle;connectable=0;fillColor=none;top=0;left=0;bottom=0;right=0;align=left;spacingLeft=2;overflow=hidden;fontSize=11;" parent="6uw_re-vHl8ZJ_pmMmy7-18" vertex="1">
          <mxGeometry x="122" width="22" height="22" as="geometry">
            <mxRectangle width="22" height="22" as="alternateBounds" />
          </mxGeometry>
        </mxCell>
        <mxCell id="6uw_re-vHl8ZJ_pmMmy7-22" value="POSITIONS" style="shape=table;startSize=25;container=1;collapsible=0;childLayout=tableLayout;fixedRows=1;rowLines=1;fontStyle=1;align=center;resizeLast=1;" parent="1" vertex="1">
          <mxGeometry x="20" y="20" width="152" height="91" as="geometry" />
        </mxCell>
        <mxCell id="6uw_re-vHl8ZJ_pmMmy7-23" style="shape=tableRow;horizontal=0;startSize=0;swimlaneHead=0;swimlaneBody=0;fillColor=none;collapsible=0;dropTarget=0;points=[[0,0.5],[1,0.5]];portConstraint=eastwest;top=0;left=0;right=0;bottom=0;" parent="6uw_re-vHl8ZJ_pmMmy7-22" vertex="1">
          <mxGeometry y="25" width="152" height="22" as="geometry" />
        </mxCell>
        <mxCell id="6uw_re-vHl8ZJ_pmMmy7-24" value="INT" style="shape=partialRectangle;connectable=0;fillColor=none;top=0;left=0;bottom=0;right=0;align=left;spacingLeft=2;overflow=hidden;fontSize=11;" parent="6uw_re-vHl8ZJ_pmMmy7-23" vertex="1">
          <mxGeometry width="42" height="22" as="geometry">
            <mxRectangle width="42" height="22" as="alternateBounds" />
          </mxGeometry>
        </mxCell>
        <mxCell id="6uw_re-vHl8ZJ_pmMmy7-25" value="Position_ID" style="shape=partialRectangle;connectable=0;fillColor=none;top=0;left=0;bottom=0;right=0;align=left;spacingLeft=2;overflow=hidden;fontSize=11;" parent="6uw_re-vHl8ZJ_pmMmy7-23" vertex="1">
          <mxGeometry x="42" width="88" height="22" as="geometry">
            <mxRectangle width="88" height="22" as="alternateBounds" />
          </mxGeometry>
        </mxCell>
        <mxCell id="6uw_re-vHl8ZJ_pmMmy7-26" value="PK" style="shape=partialRectangle;connectable=0;fillColor=none;top=0;left=0;bottom=0;right=0;align=left;spacingLeft=2;overflow=hidden;fontSize=11;" parent="6uw_re-vHl8ZJ_pmMmy7-23" vertex="1">
          <mxGeometry x="130" width="22" height="22" as="geometry">
            <mxRectangle width="22" height="22" as="alternateBounds" />
          </mxGeometry>
        </mxCell>
        <mxCell id="6uw_re-vHl8ZJ_pmMmy7-27" style="shape=tableRow;horizontal=0;startSize=0;swimlaneHead=0;swimlaneBody=0;fillColor=none;collapsible=0;dropTarget=0;points=[[0,0.5],[1,0.5]];portConstraint=eastwest;top=0;left=0;right=0;bottom=0;" parent="6uw_re-vHl8ZJ_pmMmy7-22" vertex="1">
          <mxGeometry y="47" width="152" height="22" as="geometry" />
        </mxCell>
        <mxCell id="6uw_re-vHl8ZJ_pmMmy7-28" value="VARCHAR" style="shape=partialRectangle;connectable=0;fillColor=none;top=0;left=0;bottom=0;right=0;align=left;spacingLeft=2;overflow=hidden;fontSize=11;" parent="6uw_re-vHl8ZJ_pmMmy7-27" vertex="1">
          <mxGeometry width="42" height="22" as="geometry">
            <mxRectangle width="42" height="22" as="alternateBounds" />
          </mxGeometry>
        </mxCell>
        <mxCell id="6uw_re-vHl8ZJ_pmMmy7-29" value="Position_Name" style="shape=partialRectangle;connectable=0;fillColor=none;top=0;left=0;bottom=0;right=0;align=left;spacingLeft=2;overflow=hidden;fontSize=11;" parent="6uw_re-vHl8ZJ_pmMmy7-27" vertex="1">
          <mxGeometry x="42" width="88" height="22" as="geometry">
            <mxRectangle width="88" height="22" as="alternateBounds" />
          </mxGeometry>
        </mxCell>
        <mxCell id="6uw_re-vHl8ZJ_pmMmy7-30" value="" style="shape=partialRectangle;connectable=0;fillColor=none;top=0;left=0;bottom=0;right=0;align=left;spacingLeft=2;overflow=hidden;fontSize=11;" parent="6uw_re-vHl8ZJ_pmMmy7-27" vertex="1">
          <mxGeometry x="130" width="22" height="22" as="geometry">
            <mxRectangle width="22" height="22" as="alternateBounds" />
          </mxGeometry>
        </mxCell>
        <mxCell id="6uw_re-vHl8ZJ_pmMmy7-31" style="shape=tableRow;horizontal=0;startSize=0;swimlaneHead=0;swimlaneBody=0;fillColor=none;collapsible=0;dropTarget=0;points=[[0,0.5],[1,0.5]];portConstraint=eastwest;top=0;left=0;right=0;bottom=0;" parent="6uw_re-vHl8ZJ_pmMmy7-22" vertex="1">
          <mxGeometry y="69" width="152" height="22" as="geometry" />
        </mxCell>
        <mxCell id="6uw_re-vHl8ZJ_pmMmy7-32" value="DECIMAL" style="shape=partialRectangle;connectable=0;fillColor=none;top=0;left=0;bottom=0;right=0;align=left;spacingLeft=2;overflow=hidden;fontSize=11;" parent="6uw_re-vHl8ZJ_pmMmy7-31" vertex="1">
          <mxGeometry width="42" height="22" as="geometry">
            <mxRectangle width="42" height="22" as="alternateBounds" />
          </mxGeometry>
        </mxCell>
        <mxCell id="6uw_re-vHl8ZJ_pmMmy7-33" value="Salary" style="shape=partialRectangle;connectable=0;fillColor=none;top=0;left=0;bottom=0;right=0;align=left;spacingLeft=2;overflow=hidden;fontSize=11;" parent="6uw_re-vHl8ZJ_pmMmy7-31" vertex="1">
          <mxGeometry x="42" width="88" height="22" as="geometry">
            <mxRectangle width="88" height="22" as="alternateBounds" />
          </mxGeometry>
        </mxCell>
        <mxCell id="6uw_re-vHl8ZJ_pmMmy7-34" value="" style="shape=partialRectangle;connectable=0;fillColor=none;top=0;left=0;bottom=0;right=0;align=left;spacingLeft=2;overflow=hidden;fontSize=11;" parent="6uw_re-vHl8ZJ_pmMmy7-31" vertex="1">
          <mxGeometry x="130" width="22" height="22" as="geometry">
            <mxRectangle width="22" height="22" as="alternateBounds" />
          </mxGeometry>
        </mxCell>
        <mxCell id="6uw_re-vHl8ZJ_pmMmy7-35" value="DOCUMENTS" style="shape=table;startSize=25;container=1;collapsible=0;childLayout=tableLayout;fixedRows=1;rowLines=1;fontStyle=1;align=center;resizeLast=1;" parent="1" vertex="1">
          <mxGeometry x="250" y="443" width="173" height="179" as="geometry" />
        </mxCell>
        <mxCell id="6uw_re-vHl8ZJ_pmMmy7-36" style="shape=tableRow;horizontal=0;startSize=0;swimlaneHead=0;swimlaneBody=0;fillColor=none;collapsible=0;dropTarget=0;points=[[0,0.5],[1,0.5]];portConstraint=eastwest;top=0;left=0;right=0;bottom=0;" parent="6uw_re-vHl8ZJ_pmMmy7-35" vertex="1">
          <mxGeometry y="25" width="173" height="22" as="geometry" />
        </mxCell>
        <mxCell id="6uw_re-vHl8ZJ_pmMmy7-37" value="INT" style="shape=partialRectangle;connectable=0;fillColor=none;top=0;left=0;bottom=0;right=0;align=left;spacingLeft=2;overflow=hidden;fontSize=11;" parent="6uw_re-vHl8ZJ_pmMmy7-36" vertex="1">
          <mxGeometry width="42" height="22" as="geometry">
            <mxRectangle width="42" height="22" as="alternateBounds" />
          </mxGeometry>
        </mxCell>
        <mxCell id="6uw_re-vHl8ZJ_pmMmy7-38" value="Document_ID" style="shape=partialRectangle;connectable=0;fillColor=none;top=0;left=0;bottom=0;right=0;align=left;spacingLeft=2;overflow=hidden;fontSize=11;" parent="6uw_re-vHl8ZJ_pmMmy7-36" vertex="1">
          <mxGeometry x="42" width="109" height="22" as="geometry">
            <mxRectangle width="109" height="22" as="alternateBounds" />
          </mxGeometry>
        </mxCell>
        <mxCell id="6uw_re-vHl8ZJ_pmMmy7-39" value="PK" style="shape=partialRectangle;connectable=0;fillColor=none;top=0;left=0;bottom=0;right=0;align=left;spacingLeft=2;overflow=hidden;fontSize=11;" parent="6uw_re-vHl8ZJ_pmMmy7-36" vertex="1">
          <mxGeometry x="151" width="22" height="22" as="geometry">
            <mxRectangle width="22" height="22" as="alternateBounds" />
          </mxGeometry>
        </mxCell>
        <mxCell id="6uw_re-vHl8ZJ_pmMmy7-40" style="shape=tableRow;horizontal=0;startSize=0;swimlaneHead=0;swimlaneBody=0;fillColor=none;collapsible=0;dropTarget=0;points=[[0,0.5],[1,0.5]];portConstraint=eastwest;top=0;left=0;right=0;bottom=0;" parent="6uw_re-vHl8ZJ_pmMmy7-35" vertex="1">
          <mxGeometry y="47" width="173" height="22" as="geometry" />
        </mxCell>
        <mxCell id="6uw_re-vHl8ZJ_pmMmy7-41" value="VARCHAR" style="shape=partialRectangle;connectable=0;fillColor=none;top=0;left=0;bottom=0;right=0;align=left;spacingLeft=2;overflow=hidden;fontSize=11;" parent="6uw_re-vHl8ZJ_pmMmy7-40" vertex="1">
          <mxGeometry width="42" height="22" as="geometry">
            <mxRectangle width="42" height="22" as="alternateBounds" />
          </mxGeometry>
        </mxCell>
        <mxCell id="6uw_re-vHl8ZJ_pmMmy7-42" value="Document_Number" style="shape=partialRectangle;connectable=0;fillColor=none;top=0;left=0;bottom=0;right=0;align=left;spacingLeft=2;overflow=hidden;fontSize=11;" parent="6uw_re-vHl8ZJ_pmMmy7-40" vertex="1">
          <mxGeometry x="42" width="109" height="22" as="geometry">
            <mxRectangle width="109" height="22" as="alternateBounds" />
          </mxGeometry>
        </mxCell>
        <mxCell id="6uw_re-vHl8ZJ_pmMmy7-43" value="" style="shape=partialRectangle;connectable=0;fillColor=none;top=0;left=0;bottom=0;right=0;align=left;spacingLeft=2;overflow=hidden;fontSize=11;" parent="6uw_re-vHl8ZJ_pmMmy7-40" vertex="1">
          <mxGeometry x="151" width="22" height="22" as="geometry">
            <mxRectangle width="22" height="22" as="alternateBounds" />
          </mxGeometry>
        </mxCell>
        <mxCell id="6uw_re-vHl8ZJ_pmMmy7-44" style="shape=tableRow;horizontal=0;startSize=0;swimlaneHead=0;swimlaneBody=0;fillColor=none;collapsible=0;dropTarget=0;points=[[0,0.5],[1,0.5]];portConstraint=eastwest;top=0;left=0;right=0;bottom=0;" parent="6uw_re-vHl8ZJ_pmMmy7-35" vertex="1">
          <mxGeometry y="69" width="173" height="22" as="geometry" />
        </mxCell>
        <mxCell id="6uw_re-vHl8ZJ_pmMmy7-45" value="DATE" style="shape=partialRectangle;connectable=0;fillColor=none;top=0;left=0;bottom=0;right=0;align=left;spacingLeft=2;overflow=hidden;fontSize=11;" parent="6uw_re-vHl8ZJ_pmMmy7-44" vertex="1">
          <mxGeometry width="42" height="22" as="geometry">
            <mxRectangle width="42" height="22" as="alternateBounds" />
          </mxGeometry>
        </mxCell>
        <mxCell id="6uw_re-vHl8ZJ_pmMmy7-46" value="Document_Date" style="shape=partialRectangle;connectable=0;fillColor=none;top=0;left=0;bottom=0;right=0;align=left;spacingLeft=2;overflow=hidden;fontSize=11;" parent="6uw_re-vHl8ZJ_pmMmy7-44" vertex="1">
          <mxGeometry x="42" width="109" height="22" as="geometry">
            <mxRectangle width="109" height="22" as="alternateBounds" />
          </mxGeometry>
        </mxCell>
        <mxCell id="6uw_re-vHl8ZJ_pmMmy7-47" value="" style="shape=partialRectangle;connectable=0;fillColor=none;top=0;left=0;bottom=0;right=0;align=left;spacingLeft=2;overflow=hidden;fontSize=11;" parent="6uw_re-vHl8ZJ_pmMmy7-44" vertex="1">
          <mxGeometry x="151" width="22" height="22" as="geometry">
            <mxRectangle width="22" height="22" as="alternateBounds" />
          </mxGeometry>
        </mxCell>
        <mxCell id="6uw_re-vHl8ZJ_pmMmy7-48" style="shape=tableRow;horizontal=0;startSize=0;swimlaneHead=0;swimlaneBody=0;fillColor=none;collapsible=0;dropTarget=0;points=[[0,0.5],[1,0.5]];portConstraint=eastwest;top=0;left=0;right=0;bottom=0;" parent="6uw_re-vHl8ZJ_pmMmy7-35" vertex="1">
          <mxGeometry y="91" width="173" height="22" as="geometry" />
        </mxCell>
        <mxCell id="6uw_re-vHl8ZJ_pmMmy7-49" value="INT" style="shape=partialRectangle;connectable=0;fillColor=none;top=0;left=0;bottom=0;right=0;align=left;spacingLeft=2;overflow=hidden;fontSize=11;" parent="6uw_re-vHl8ZJ_pmMmy7-48" vertex="1">
          <mxGeometry width="42" height="22" as="geometry">
            <mxRectangle width="42" height="22" as="alternateBounds" />
          </mxGeometry>
        </mxCell>
        <mxCell id="6uw_re-vHl8ZJ_pmMmy7-50" value="Type_ID" style="shape=partialRectangle;connectable=0;fillColor=none;top=0;left=0;bottom=0;right=0;align=left;spacingLeft=2;overflow=hidden;fontSize=11;" parent="6uw_re-vHl8ZJ_pmMmy7-48" vertex="1">
          <mxGeometry x="42" width="109" height="22" as="geometry">
            <mxRectangle width="109" height="22" as="alternateBounds" />
          </mxGeometry>
        </mxCell>
        <mxCell id="6uw_re-vHl8ZJ_pmMmy7-51" value="FK" style="shape=partialRectangle;connectable=0;fillColor=none;top=0;left=0;bottom=0;right=0;align=left;spacingLeft=2;overflow=hidden;fontSize=11;" parent="6uw_re-vHl8ZJ_pmMmy7-48" vertex="1">
          <mxGeometry x="151" width="22" height="22" as="geometry">
            <mxRectangle width="22" height="22" as="alternateBounds" />
          </mxGeometry>
        </mxCell>
        <mxCell id="6uw_re-vHl8ZJ_pmMmy7-52" style="shape=tableRow;horizontal=0;startSize=0;swimlaneHead=0;swimlaneBody=0;fillColor=none;collapsible=0;dropTarget=0;points=[[0,0.5],[1,0.5]];portConstraint=eastwest;top=0;left=0;right=0;bottom=0;" parent="6uw_re-vHl8ZJ_pmMmy7-35" vertex="1">
          <mxGeometry y="113" width="173" height="22" as="geometry" />
        </mxCell>
        <mxCell id="6uw_re-vHl8ZJ_pmMmy7-53" value="INT" style="shape=partialRectangle;connectable=0;fillColor=none;top=0;left=0;bottom=0;right=0;align=left;spacingLeft=2;overflow=hidden;fontSize=11;" parent="6uw_re-vHl8ZJ_pmMmy7-52" vertex="1">
          <mxGeometry width="42" height="22" as="geometry">
            <mxRectangle width="42" height="22" as="alternateBounds" />
          </mxGeometry>
        </mxCell>
        <mxCell id="6uw_re-vHl8ZJ_pmMmy7-54" value="Employee_ID" style="shape=partialRectangle;connectable=0;fillColor=none;top=0;left=0;bottom=0;right=0;align=left;spacingLeft=2;overflow=hidden;fontSize=11;" parent="6uw_re-vHl8ZJ_pmMmy7-52" vertex="1">
          <mxGeometry x="42" width="109" height="22" as="geometry">
            <mxRectangle width="109" height="22" as="alternateBounds" />
          </mxGeometry>
        </mxCell>
        <mxCell id="6uw_re-vHl8ZJ_pmMmy7-55" value="FK" style="shape=partialRectangle;connectable=0;fillColor=none;top=0;left=0;bottom=0;right=0;align=left;spacingLeft=2;overflow=hidden;fontSize=11;" parent="6uw_re-vHl8ZJ_pmMmy7-52" vertex="1">
          <mxGeometry x="151" width="22" height="22" as="geometry">
            <mxRectangle width="22" height="22" as="alternateBounds" />
          </mxGeometry>
        </mxCell>
        <mxCell id="6uw_re-vHl8ZJ_pmMmy7-56" style="shape=tableRow;horizontal=0;startSize=0;swimlaneHead=0;swimlaneBody=0;fillColor=none;collapsible=0;dropTarget=0;points=[[0,0.5],[1,0.5]];portConstraint=eastwest;top=0;left=0;right=0;bottom=0;" parent="6uw_re-vHl8ZJ_pmMmy7-35" vertex="1">
          <mxGeometry y="135" width="173" height="22" as="geometry" />
        </mxCell>
        <mxCell id="6uw_re-vHl8ZJ_pmMmy7-57" value="INT" style="shape=partialRectangle;connectable=0;fillColor=none;top=0;left=0;bottom=0;right=0;align=left;spacingLeft=2;overflow=hidden;fontSize=11;" parent="6uw_re-vHl8ZJ_pmMmy7-56" vertex="1">
          <mxGeometry width="42" height="22" as="geometry">
            <mxRectangle width="42" height="22" as="alternateBounds" />
          </mxGeometry>
        </mxCell>
        <mxCell id="6uw_re-vHl8ZJ_pmMmy7-58" value="Contractor_ID" style="shape=partialRectangle;connectable=0;fillColor=none;top=0;left=0;bottom=0;right=0;align=left;spacingLeft=2;overflow=hidden;fontSize=11;" parent="6uw_re-vHl8ZJ_pmMmy7-56" vertex="1">
          <mxGeometry x="42" width="109" height="22" as="geometry">
            <mxRectangle width="109" height="22" as="alternateBounds" />
          </mxGeometry>
        </mxCell>
        <mxCell id="6uw_re-vHl8ZJ_pmMmy7-59" value="FK" style="shape=partialRectangle;connectable=0;fillColor=none;top=0;left=0;bottom=0;right=0;align=left;spacingLeft=2;overflow=hidden;fontSize=11;" parent="6uw_re-vHl8ZJ_pmMmy7-56" vertex="1">
          <mxGeometry x="151" width="22" height="22" as="geometry">
            <mxRectangle width="22" height="22" as="alternateBounds" />
          </mxGeometry>
        </mxCell>
        <mxCell id="6uw_re-vHl8ZJ_pmMmy7-60" style="shape=tableRow;horizontal=0;startSize=0;swimlaneHead=0;swimlaneBody=0;fillColor=none;collapsible=0;dropTarget=0;points=[[0,0.5],[1,0.5]];portConstraint=eastwest;top=0;left=0;right=0;bottom=0;" parent="6uw_re-vHl8ZJ_pmMmy7-35" vertex="1">
          <mxGeometry y="157" width="173" height="22" as="geometry" />
        </mxCell>
        <mxCell id="6uw_re-vHl8ZJ_pmMmy7-61" value="DECIMAL" style="shape=partialRectangle;connectable=0;fillColor=none;top=0;left=0;bottom=0;right=0;align=left;spacingLeft=2;overflow=hidden;fontSize=11;" parent="6uw_re-vHl8ZJ_pmMmy7-60" vertex="1">
          <mxGeometry width="42" height="22" as="geometry">
            <mxRectangle width="42" height="22" as="alternateBounds" />
          </mxGeometry>
        </mxCell>
        <mxCell id="6uw_re-vHl8ZJ_pmMmy7-62" value="Amount" style="shape=partialRectangle;connectable=0;fillColor=none;top=0;left=0;bottom=0;right=0;align=left;spacingLeft=2;overflow=hidden;fontSize=11;" parent="6uw_re-vHl8ZJ_pmMmy7-60" vertex="1">
          <mxGeometry x="42" width="109" height="22" as="geometry">
            <mxRectangle width="109" height="22" as="alternateBounds" />
          </mxGeometry>
        </mxCell>
        <mxCell id="6uw_re-vHl8ZJ_pmMmy7-63" value="" style="shape=partialRectangle;connectable=0;fillColor=none;top=0;left=0;bottom=0;right=0;align=left;spacingLeft=2;overflow=hidden;fontSize=11;" parent="6uw_re-vHl8ZJ_pmMmy7-60" vertex="1">
          <mxGeometry x="151" width="22" height="22" as="geometry">
            <mxRectangle width="22" height="22" as="alternateBounds" />
          </mxGeometry>
        </mxCell>
        <mxCell id="6uw_re-vHl8ZJ_pmMmy7-64" value="DOCUMENT_TYPES" style="shape=table;startSize=25;container=1;collapsible=0;childLayout=tableLayout;fixedRows=1;rowLines=1;fontStyle=1;align=center;resizeLast=1;" parent="1" vertex="1">
          <mxGeometry x="268" y="243" width="138" height="68" as="geometry" />
        </mxCell>
        <mxCell id="6uw_re-vHl8ZJ_pmMmy7-65" style="shape=tableRow;horizontal=0;startSize=0;swimlaneHead=0;swimlaneBody=0;fillColor=none;collapsible=0;dropTarget=0;points=[[0,0.5],[1,0.5]];portConstraint=eastwest;top=0;left=0;right=0;bottom=0;" parent="6uw_re-vHl8ZJ_pmMmy7-64" vertex="1">
          <mxGeometry y="25" width="138" height="21" as="geometry" />
        </mxCell>
        <mxCell id="6uw_re-vHl8ZJ_pmMmy7-66" value="INT" style="shape=partialRectangle;connectable=0;fillColor=none;top=0;left=0;bottom=0;right=0;align=left;spacingLeft=2;overflow=hidden;fontSize=11;" parent="6uw_re-vHl8ZJ_pmMmy7-65" vertex="1">
          <mxGeometry width="42" height="21" as="geometry">
            <mxRectangle width="42" height="21" as="alternateBounds" />
          </mxGeometry>
        </mxCell>
        <mxCell id="6uw_re-vHl8ZJ_pmMmy7-67" value="Type_ID" style="shape=partialRectangle;connectable=0;fillColor=none;top=0;left=0;bottom=0;right=0;align=left;spacingLeft=2;overflow=hidden;fontSize=11;" parent="6uw_re-vHl8ZJ_pmMmy7-65" vertex="1">
          <mxGeometry x="42" width="74" height="21" as="geometry">
            <mxRectangle width="74" height="21" as="alternateBounds" />
          </mxGeometry>
        </mxCell>
        <mxCell id="6uw_re-vHl8ZJ_pmMmy7-68" value="PK" style="shape=partialRectangle;connectable=0;fillColor=none;top=0;left=0;bottom=0;right=0;align=left;spacingLeft=2;overflow=hidden;fontSize=11;" parent="6uw_re-vHl8ZJ_pmMmy7-65" vertex="1">
          <mxGeometry x="116" width="22" height="21" as="geometry">
            <mxRectangle width="22" height="21" as="alternateBounds" />
          </mxGeometry>
        </mxCell>
        <mxCell id="6uw_re-vHl8ZJ_pmMmy7-69" style="shape=tableRow;horizontal=0;startSize=0;swimlaneHead=0;swimlaneBody=0;fillColor=none;collapsible=0;dropTarget=0;points=[[0,0.5],[1,0.5]];portConstraint=eastwest;top=0;left=0;right=0;bottom=0;" parent="6uw_re-vHl8ZJ_pmMmy7-64" vertex="1">
          <mxGeometry y="46" width="138" height="21" as="geometry" />
        </mxCell>
        <mxCell id="6uw_re-vHl8ZJ_pmMmy7-70" value="VARCHAR" style="shape=partialRectangle;connectable=0;fillColor=none;top=0;left=0;bottom=0;right=0;align=left;spacingLeft=2;overflow=hidden;fontSize=11;" parent="6uw_re-vHl8ZJ_pmMmy7-69" vertex="1">
          <mxGeometry width="42" height="21" as="geometry">
            <mxRectangle width="42" height="21" as="alternateBounds" />
          </mxGeometry>
        </mxCell>
        <mxCell id="6uw_re-vHl8ZJ_pmMmy7-71" value="Type_Name" style="shape=partialRectangle;connectable=0;fillColor=none;top=0;left=0;bottom=0;right=0;align=left;spacingLeft=2;overflow=hidden;fontSize=11;" parent="6uw_re-vHl8ZJ_pmMmy7-69" vertex="1">
          <mxGeometry x="42" width="74" height="21" as="geometry">
            <mxRectangle width="74" height="21" as="alternateBounds" />
          </mxGeometry>
        </mxCell>
        <mxCell id="6uw_re-vHl8ZJ_pmMmy7-72" value="" style="shape=partialRectangle;connectable=0;fillColor=none;top=0;left=0;bottom=0;right=0;align=left;spacingLeft=2;overflow=hidden;fontSize=11;" parent="6uw_re-vHl8ZJ_pmMmy7-69" vertex="1">
          <mxGeometry x="116" width="22" height="21" as="geometry">
            <mxRectangle width="22" height="21" as="alternateBounds" />
          </mxGeometry>
        </mxCell>
        <mxCell id="6uw_re-vHl8ZJ_pmMmy7-73" value="CONTRACTORS" style="shape=table;startSize=25;container=1;collapsible=0;childLayout=tableLayout;fixedRows=1;rowLines=1;fontStyle=1;align=center;resizeLast=1;" parent="1" vertex="1">
          <mxGeometry x="506" y="221" width="165" height="113" as="geometry" />
        </mxCell>
        <mxCell id="6uw_re-vHl8ZJ_pmMmy7-74" style="shape=tableRow;horizontal=0;startSize=0;swimlaneHead=0;swimlaneBody=0;fillColor=none;collapsible=0;dropTarget=0;points=[[0,0.5],[1,0.5]];portConstraint=eastwest;top=0;left=0;right=0;bottom=0;" parent="6uw_re-vHl8ZJ_pmMmy7-73" vertex="1">
          <mxGeometry y="25" width="165" height="22" as="geometry" />
        </mxCell>
        <mxCell id="6uw_re-vHl8ZJ_pmMmy7-75" value="INT" style="shape=partialRectangle;connectable=0;fillColor=none;top=0;left=0;bottom=0;right=0;align=left;spacingLeft=2;overflow=hidden;fontSize=11;" parent="6uw_re-vHl8ZJ_pmMmy7-74" vertex="1">
          <mxGeometry width="42" height="22" as="geometry">
            <mxRectangle width="42" height="22" as="alternateBounds" />
          </mxGeometry>
        </mxCell>
        <mxCell id="6uw_re-vHl8ZJ_pmMmy7-76" value="Contractor_ID" style="shape=partialRectangle;connectable=0;fillColor=none;top=0;left=0;bottom=0;right=0;align=left;spacingLeft=2;overflow=hidden;fontSize=11;" parent="6uw_re-vHl8ZJ_pmMmy7-74" vertex="1">
          <mxGeometry x="42" width="101" height="22" as="geometry">
            <mxRectangle width="101" height="22" as="alternateBounds" />
          </mxGeometry>
        </mxCell>
        <mxCell id="6uw_re-vHl8ZJ_pmMmy7-77" value="PK" style="shape=partialRectangle;connectable=0;fillColor=none;top=0;left=0;bottom=0;right=0;align=left;spacingLeft=2;overflow=hidden;fontSize=11;" parent="6uw_re-vHl8ZJ_pmMmy7-74" vertex="1">
          <mxGeometry x="143" width="22" height="22" as="geometry">
            <mxRectangle width="22" height="22" as="alternateBounds" />
          </mxGeometry>
        </mxCell>
        <mxCell id="6uw_re-vHl8ZJ_pmMmy7-78" style="shape=tableRow;horizontal=0;startSize=0;swimlaneHead=0;swimlaneBody=0;fillColor=none;collapsible=0;dropTarget=0;points=[[0,0.5],[1,0.5]];portConstraint=eastwest;top=0;left=0;right=0;bottom=0;" parent="6uw_re-vHl8ZJ_pmMmy7-73" vertex="1">
          <mxGeometry y="47" width="165" height="22" as="geometry" />
        </mxCell>
        <mxCell id="6uw_re-vHl8ZJ_pmMmy7-79" value="VARCHAR" style="shape=partialRectangle;connectable=0;fillColor=none;top=0;left=0;bottom=0;right=0;align=left;spacingLeft=2;overflow=hidden;fontSize=11;" parent="6uw_re-vHl8ZJ_pmMmy7-78" vertex="1">
          <mxGeometry width="42" height="22" as="geometry">
            <mxRectangle width="42" height="22" as="alternateBounds" />
          </mxGeometry>
        </mxCell>
        <mxCell id="6uw_re-vHl8ZJ_pmMmy7-80" value="Contractor_Name" style="shape=partialRectangle;connectable=0;fillColor=none;top=0;left=0;bottom=0;right=0;align=left;spacingLeft=2;overflow=hidden;fontSize=11;" parent="6uw_re-vHl8ZJ_pmMmy7-78" vertex="1">
          <mxGeometry x="42" width="101" height="22" as="geometry">
            <mxRectangle width="101" height="22" as="alternateBounds" />
          </mxGeometry>
        </mxCell>
        <mxCell id="6uw_re-vHl8ZJ_pmMmy7-81" value="" style="shape=partialRectangle;connectable=0;fillColor=none;top=0;left=0;bottom=0;right=0;align=left;spacingLeft=2;overflow=hidden;fontSize=11;" parent="6uw_re-vHl8ZJ_pmMmy7-78" vertex="1">
          <mxGeometry x="143" width="22" height="22" as="geometry">
            <mxRectangle width="22" height="22" as="alternateBounds" />
          </mxGeometry>
        </mxCell>
        <mxCell id="6uw_re-vHl8ZJ_pmMmy7-82" style="shape=tableRow;horizontal=0;startSize=0;swimlaneHead=0;swimlaneBody=0;fillColor=none;collapsible=0;dropTarget=0;points=[[0,0.5],[1,0.5]];portConstraint=eastwest;top=0;left=0;right=0;bottom=0;" parent="6uw_re-vHl8ZJ_pmMmy7-73" vertex="1">
          <mxGeometry y="69" width="165" height="22" as="geometry" />
        </mxCell>
        <mxCell id="6uw_re-vHl8ZJ_pmMmy7-83" value="VARCHAR" style="shape=partialRectangle;connectable=0;fillColor=none;top=0;left=0;bottom=0;right=0;align=left;spacingLeft=2;overflow=hidden;fontSize=11;" parent="6uw_re-vHl8ZJ_pmMmy7-82" vertex="1">
          <mxGeometry width="42" height="22" as="geometry">
            <mxRectangle width="42" height="22" as="alternateBounds" />
          </mxGeometry>
        </mxCell>
        <mxCell id="6uw_re-vHl8ZJ_pmMmy7-84" value="Contact_Person" style="shape=partialRectangle;connectable=0;fillColor=none;top=0;left=0;bottom=0;right=0;align=left;spacingLeft=2;overflow=hidden;fontSize=11;" parent="6uw_re-vHl8ZJ_pmMmy7-82" vertex="1">
          <mxGeometry x="42" width="101" height="22" as="geometry">
            <mxRectangle width="101" height="22" as="alternateBounds" />
          </mxGeometry>
        </mxCell>
        <mxCell id="6uw_re-vHl8ZJ_pmMmy7-85" value="" style="shape=partialRectangle;connectable=0;fillColor=none;top=0;left=0;bottom=0;right=0;align=left;spacingLeft=2;overflow=hidden;fontSize=11;" parent="6uw_re-vHl8ZJ_pmMmy7-82" vertex="1">
          <mxGeometry x="143" width="22" height="22" as="geometry">
            <mxRectangle width="22" height="22" as="alternateBounds" />
          </mxGeometry>
        </mxCell>
        <mxCell id="6uw_re-vHl8ZJ_pmMmy7-86" style="shape=tableRow;horizontal=0;startSize=0;swimlaneHead=0;swimlaneBody=0;fillColor=none;collapsible=0;dropTarget=0;points=[[0,0.5],[1,0.5]];portConstraint=eastwest;top=0;left=0;right=0;bottom=0;" parent="6uw_re-vHl8ZJ_pmMmy7-73" vertex="1">
          <mxGeometry y="91" width="165" height="22" as="geometry" />
        </mxCell>
        <mxCell id="6uw_re-vHl8ZJ_pmMmy7-87" value="VARCHAR" style="shape=partialRectangle;connectable=0;fillColor=none;top=0;left=0;bottom=0;right=0;align=left;spacingLeft=2;overflow=hidden;fontSize=11;" parent="6uw_re-vHl8ZJ_pmMmy7-86" vertex="1">
          <mxGeometry width="42" height="22" as="geometry">
            <mxRectangle width="42" height="22" as="alternateBounds" />
          </mxGeometry>
        </mxCell>
        <mxCell id="6uw_re-vHl8ZJ_pmMmy7-88" value="Phone" style="shape=partialRectangle;connectable=0;fillColor=none;top=0;left=0;bottom=0;right=0;align=left;spacingLeft=2;overflow=hidden;fontSize=11;" parent="6uw_re-vHl8ZJ_pmMmy7-86" vertex="1">
          <mxGeometry x="42" width="101" height="22" as="geometry">
            <mxRectangle width="101" height="22" as="alternateBounds" />
          </mxGeometry>
        </mxCell>
        <mxCell id="6uw_re-vHl8ZJ_pmMmy7-89" value="" style="shape=partialRectangle;connectable=0;fillColor=none;top=0;left=0;bottom=0;right=0;align=left;spacingLeft=2;overflow=hidden;fontSize=11;" parent="6uw_re-vHl8ZJ_pmMmy7-86" vertex="1">
          <mxGeometry x="143" width="22" height="22" as="geometry">
            <mxRectangle width="22" height="22" as="alternateBounds" />
          </mxGeometry>
        </mxCell>
        <mxCell id="6uw_re-vHl8ZJ_pmMmy7-90" value="PAYMENTS" style="shape=table;startSize=25;container=1;collapsible=0;childLayout=tableLayout;fixedRows=1;rowLines=1;fontStyle=1;align=center;resizeLast=1;" parent="1" vertex="1">
          <mxGeometry x="254" y="721" width="165" height="135" as="geometry" />
        </mxCell>
        <mxCell id="6uw_re-vHl8ZJ_pmMmy7-91" style="shape=tableRow;horizontal=0;startSize=0;swimlaneHead=0;swimlaneBody=0;fillColor=none;collapsible=0;dropTarget=0;points=[[0,0.5],[1,0.5]];portConstraint=eastwest;top=0;left=0;right=0;bottom=0;" parent="6uw_re-vHl8ZJ_pmMmy7-90" vertex="1">
          <mxGeometry y="25" width="165" height="22" as="geometry" />
        </mxCell>
        <mxCell id="6uw_re-vHl8ZJ_pmMmy7-92" value="INT" style="shape=partialRectangle;connectable=0;fillColor=none;top=0;left=0;bottom=0;right=0;align=left;spacingLeft=2;overflow=hidden;fontSize=11;" parent="6uw_re-vHl8ZJ_pmMmy7-91" vertex="1">
          <mxGeometry width="42" height="22" as="geometry">
            <mxRectangle width="42" height="22" as="alternateBounds" />
          </mxGeometry>
        </mxCell>
        <mxCell id="6uw_re-vHl8ZJ_pmMmy7-93" value="Payment_ID" style="shape=partialRectangle;connectable=0;fillColor=none;top=0;left=0;bottom=0;right=0;align=left;spacingLeft=2;overflow=hidden;fontSize=11;" parent="6uw_re-vHl8ZJ_pmMmy7-91" vertex="1">
          <mxGeometry x="42" width="101" height="22" as="geometry">
            <mxRectangle width="101" height="22" as="alternateBounds" />
          </mxGeometry>
        </mxCell>
        <mxCell id="6uw_re-vHl8ZJ_pmMmy7-94" value="PK" style="shape=partialRectangle;connectable=0;fillColor=none;top=0;left=0;bottom=0;right=0;align=left;spacingLeft=2;overflow=hidden;fontSize=11;" parent="6uw_re-vHl8ZJ_pmMmy7-91" vertex="1">
          <mxGeometry x="143" width="22" height="22" as="geometry">
            <mxRectangle width="22" height="22" as="alternateBounds" />
          </mxGeometry>
        </mxCell>
        <mxCell id="6uw_re-vHl8ZJ_pmMmy7-95" style="shape=tableRow;horizontal=0;startSize=0;swimlaneHead=0;swimlaneBody=0;fillColor=none;collapsible=0;dropTarget=0;points=[[0,0.5],[1,0.5]];portConstraint=eastwest;top=0;left=0;right=0;bottom=0;" parent="6uw_re-vHl8ZJ_pmMmy7-90" vertex="1">
          <mxGeometry y="47" width="165" height="22" as="geometry" />
        </mxCell>
        <mxCell id="6uw_re-vHl8ZJ_pmMmy7-96" value="DATE" style="shape=partialRectangle;connectable=0;fillColor=none;top=0;left=0;bottom=0;right=0;align=left;spacingLeft=2;overflow=hidden;fontSize=11;" parent="6uw_re-vHl8ZJ_pmMmy7-95" vertex="1">
          <mxGeometry width="42" height="22" as="geometry">
            <mxRectangle width="42" height="22" as="alternateBounds" />
          </mxGeometry>
        </mxCell>
        <mxCell id="6uw_re-vHl8ZJ_pmMmy7-97" value="Payment_Date" style="shape=partialRectangle;connectable=0;fillColor=none;top=0;left=0;bottom=0;right=0;align=left;spacingLeft=2;overflow=hidden;fontSize=11;" parent="6uw_re-vHl8ZJ_pmMmy7-95" vertex="1">
          <mxGeometry x="42" width="101" height="22" as="geometry">
            <mxRectangle width="101" height="22" as="alternateBounds" />
          </mxGeometry>
        </mxCell>
        <mxCell id="6uw_re-vHl8ZJ_pmMmy7-98" value="" style="shape=partialRectangle;connectable=0;fillColor=none;top=0;left=0;bottom=0;right=0;align=left;spacingLeft=2;overflow=hidden;fontSize=11;" parent="6uw_re-vHl8ZJ_pmMmy7-95" vertex="1">
          <mxGeometry x="143" width="22" height="22" as="geometry">
            <mxRectangle width="22" height="22" as="alternateBounds" />
          </mxGeometry>
        </mxCell>
        <mxCell id="6uw_re-vHl8ZJ_pmMmy7-99" style="shape=tableRow;horizontal=0;startSize=0;swimlaneHead=0;swimlaneBody=0;fillColor=none;collapsible=0;dropTarget=0;points=[[0,0.5],[1,0.5]];portConstraint=eastwest;top=0;left=0;right=0;bottom=0;" parent="6uw_re-vHl8ZJ_pmMmy7-90" vertex="1">
          <mxGeometry y="69" width="165" height="22" as="geometry" />
        </mxCell>
        <mxCell id="6uw_re-vHl8ZJ_pmMmy7-100" value="INT" style="shape=partialRectangle;connectable=0;fillColor=none;top=0;left=0;bottom=0;right=0;align=left;spacingLeft=2;overflow=hidden;fontSize=11;" parent="6uw_re-vHl8ZJ_pmMmy7-99" vertex="1">
          <mxGeometry width="42" height="22" as="geometry">
            <mxRectangle width="42" height="22" as="alternateBounds" />
          </mxGeometry>
        </mxCell>
        <mxCell id="6uw_re-vHl8ZJ_pmMmy7-101" value="Document_ID" style="shape=partialRectangle;connectable=0;fillColor=none;top=0;left=0;bottom=0;right=0;align=left;spacingLeft=2;overflow=hidden;fontSize=11;" parent="6uw_re-vHl8ZJ_pmMmy7-99" vertex="1">
          <mxGeometry x="42" width="101" height="22" as="geometry">
            <mxRectangle width="101" height="22" as="alternateBounds" />
          </mxGeometry>
        </mxCell>
        <mxCell id="6uw_re-vHl8ZJ_pmMmy7-102" value="FK" style="shape=partialRectangle;connectable=0;fillColor=none;top=0;left=0;bottom=0;right=0;align=left;spacingLeft=2;overflow=hidden;fontSize=11;" parent="6uw_re-vHl8ZJ_pmMmy7-99" vertex="1">
          <mxGeometry x="143" width="22" height="22" as="geometry">
            <mxRectangle width="22" height="22" as="alternateBounds" />
          </mxGeometry>
        </mxCell>
        <mxCell id="6uw_re-vHl8ZJ_pmMmy7-103" style="shape=tableRow;horizontal=0;startSize=0;swimlaneHead=0;swimlaneBody=0;fillColor=none;collapsible=0;dropTarget=0;points=[[0,0.5],[1,0.5]];portConstraint=eastwest;top=0;left=0;right=0;bottom=0;" parent="6uw_re-vHl8ZJ_pmMmy7-90" vertex="1">
          <mxGeometry y="91" width="165" height="22" as="geometry" />
        </mxCell>
        <mxCell id="6uw_re-vHl8ZJ_pmMmy7-104" value="DECIMAL" style="shape=partialRectangle;connectable=0;fillColor=none;top=0;left=0;bottom=0;right=0;align=left;spacingLeft=2;overflow=hidden;fontSize=11;" parent="6uw_re-vHl8ZJ_pmMmy7-103" vertex="1">
          <mxGeometry width="42" height="22" as="geometry">
            <mxRectangle width="42" height="22" as="alternateBounds" />
          </mxGeometry>
        </mxCell>
        <mxCell id="6uw_re-vHl8ZJ_pmMmy7-105" value="Payment_Amount" style="shape=partialRectangle;connectable=0;fillColor=none;top=0;left=0;bottom=0;right=0;align=left;spacingLeft=2;overflow=hidden;fontSize=11;" parent="6uw_re-vHl8ZJ_pmMmy7-103" vertex="1">
          <mxGeometry x="42" width="101" height="22" as="geometry">
            <mxRectangle width="101" height="22" as="alternateBounds" />
          </mxGeometry>
        </mxCell>
        <mxCell id="6uw_re-vHl8ZJ_pmMmy7-106" value="" style="shape=partialRectangle;connectable=0;fillColor=none;top=0;left=0;bottom=0;right=0;align=left;spacingLeft=2;overflow=hidden;fontSize=11;" parent="6uw_re-vHl8ZJ_pmMmy7-103" vertex="1">
          <mxGeometry x="143" width="22" height="22" as="geometry">
            <mxRectangle width="22" height="22" as="alternateBounds" />
          </mxGeometry>
        </mxCell>
        <mxCell id="6uw_re-vHl8ZJ_pmMmy7-107" style="shape=tableRow;horizontal=0;startSize=0;swimlaneHead=0;swimlaneBody=0;fillColor=none;collapsible=0;dropTarget=0;points=[[0,0.5],[1,0.5]];portConstraint=eastwest;top=0;left=0;right=0;bottom=0;" parent="6uw_re-vHl8ZJ_pmMmy7-90" vertex="1">
          <mxGeometry y="113" width="165" height="22" as="geometry" />
        </mxCell>
        <mxCell id="6uw_re-vHl8ZJ_pmMmy7-108" value="VARCHAR" style="shape=partialRectangle;connectable=0;fillColor=none;top=0;left=0;bottom=0;right=0;align=left;spacingLeft=2;overflow=hidden;fontSize=11;" parent="6uw_re-vHl8ZJ_pmMmy7-107" vertex="1">
          <mxGeometry width="42" height="22" as="geometry">
            <mxRectangle width="42" height="22" as="alternateBounds" />
          </mxGeometry>
        </mxCell>
        <mxCell id="6uw_re-vHl8ZJ_pmMmy7-109" value="Payment_Method" style="shape=partialRectangle;connectable=0;fillColor=none;top=0;left=0;bottom=0;right=0;align=left;spacingLeft=2;overflow=hidden;fontSize=11;" parent="6uw_re-vHl8ZJ_pmMmy7-107" vertex="1">
          <mxGeometry x="42" width="101" height="22" as="geometry">
            <mxRectangle width="101" height="22" as="alternateBounds" />
          </mxGeometry>
        </mxCell>
        <mxCell id="6uw_re-vHl8ZJ_pmMmy7-110" value="" style="shape=partialRectangle;connectable=0;fillColor=none;top=0;left=0;bottom=0;right=0;align=left;spacingLeft=2;overflow=hidden;fontSize=11;" parent="6uw_re-vHl8ZJ_pmMmy7-107" vertex="1">
          <mxGeometry x="143" width="22" height="22" as="geometry">
            <mxRectangle width="22" height="22" as="alternateBounds" />
          </mxGeometry>
        </mxCell>
        <mxCell id="6uw_re-vHl8ZJ_pmMmy7-111" value="" style="curved=1;startArrow=ERmandOne;startSize=10;;endArrow=ERzeroToMany;endSize=10;;exitX=0.5;exitY=0.99;entryX=0;entryY=0.22;rounded=0;" parent="1" source="6uw_re-vHl8ZJ_pmMmy7-1" target="6uw_re-vHl8ZJ_pmMmy7-35" edge="1">
          <mxGeometry relative="1" as="geometry">
            <Array as="points">
              <mxPoint x="96" y="393" />
            </Array>
          </mxGeometry>
        </mxCell>
        <mxCell id="6uw_re-vHl8ZJ_pmMmy7-112" value="" style="curved=1;startArrow=ERmandOne;startSize=10;;endArrow=ERzeroToMany;endSize=10;;exitX=0.5;exitY=1;entryX=0.5;entryY=0;rounded=0;" parent="1" source="6uw_re-vHl8ZJ_pmMmy7-22" target="6uw_re-vHl8ZJ_pmMmy7-1" edge="1">
          <mxGeometry relative="1" as="geometry">
            <Array as="points" />
          </mxGeometry>
        </mxCell>
        <mxCell id="6uw_re-vHl8ZJ_pmMmy7-113" value="" style="curved=1;startArrow=ERmandOne;startSize=10;;endArrow=ERzeroToMany;endSize=10;;exitX=0.5;exitY=0.99;entryX=0.5;entryY=0;rounded=0;" parent="1" source="6uw_re-vHl8ZJ_pmMmy7-64" target="6uw_re-vHl8ZJ_pmMmy7-35" edge="1">
          <mxGeometry relative="1" as="geometry">
            <Array as="points" />
          </mxGeometry>
        </mxCell>
        <mxCell id="6uw_re-vHl8ZJ_pmMmy7-114" value="" style="curved=1;startArrow=ERmandOne;startSize=10;;endArrow=ERzeroToMany;endSize=10;;exitX=0.5;exitY=0.99;entryX=1;entryY=0.23;rounded=0;" parent="1" source="6uw_re-vHl8ZJ_pmMmy7-73" target="6uw_re-vHl8ZJ_pmMmy7-35" edge="1">
          <mxGeometry relative="1" as="geometry">
            <Array as="points">
              <mxPoint x="589" y="393" />
            </Array>
          </mxGeometry>
        </mxCell>
        <mxCell id="6uw_re-vHl8ZJ_pmMmy7-115" value="" style="curved=1;startArrow=ERmandOne;startSize=10;;endArrow=ERzeroToMany;endSize=10;;exitX=0.5;exitY=1;entryX=0.5;entryY=0;rounded=0;" parent="1" source="6uw_re-vHl8ZJ_pmMmy7-35" target="6uw_re-vHl8ZJ_pmMmy7-90" edge="1">
          <mxGeometry relative="1" as="geometry">
            <Array as="points" />
          </mxGeometry>
        </mxCell>
      </root>
    </mxGraphModel>
  </diagram>
</mxfile>
